<?xml version="1.0" encoding="utf-8"?>
<!-- Generator: Adobe Illustrator 22.0.1, SVG Export Plug-In . SVG Version: 6.00 Build 0)  -->
<svg version="1.1" id="레이어_1" xmlns="http://www.w3.org/2000/svg" xmlns:xlink="http://www.w3.org/1999/xlink" x="0px"
	 y="0px" viewBox="0 0 80 25" style="enable-background:new 0 0 80 25;" xml:space="preserve">
<g>
	<g>
		<path d="M46.9,7l-2.4,12.8h-6.9c-0.6-2-1.2-4.2-1.7-6.7c-0.2,1.1-0.7,3.3-1.5,6.7h-6.8L25.1,7h5.3l0.6,4.5l0.6,4.3
			c0.2-2.2,0.7-5.2,1.5-8.8h5.7c0.1,0.4,0.3,1.8,0.6,4.2l0.6,4.9C40.3,13,40.8,10,41.5,7H46.9z"/>
		<path d="M54,7v8.6c0,1.3,0,2.1-0.1,2.5c0,0.4-0.2,0.7-0.6,1c-0.4,0.3-0.8,0.5-1.4,0.6c-0.6,0.1-1.5,0.2-2.7,0.2h-2.7v-2.2
			c0.3,0,0.6,0,0.7,0c0.4,0,0.7-0.1,0.9-0.2s0.4-0.3,0.4-0.4s0.1-0.5,0.1-1V7H54z"/>
		<path d="M56.1,7h5.5c1.7,0,3,0.1,3.9,0.2c0.9,0.2,1.6,0.5,2.2,1c0.5,0.5,0.8,1.3,0.8,2.4c0,0.7-0.2,1.3-0.6,1.6
			c-0.4,0.3-1.1,0.5-2.3,0.7c1.3,0.2,2.1,0.5,2.6,0.9c0.5,0.4,0.7,1,0.7,1.9v1.2c0,0.9-0.2,1.5-0.5,1.9c-0.3,0.4-0.8,0.7-1.6,0.9
			c-0.7,0.2-2.2,0.2-4.4,0.2h-6.3V7z M61.6,9.2V12c0.2,0,0.4,0,0.5,0c0.5,0,0.9-0.1,1-0.2c0.1-0.2,0.2-0.6,0.2-1.4
			c0-0.4-0.1-0.7-0.2-0.8c-0.1-0.2-0.3-0.3-0.5-0.3C62.5,9.2,62.1,9.2,61.6,9.2z M61.6,14v3.6c0.8,0,1.3-0.1,1.5-0.2
			c0.2-0.1,0.3-0.5,0.3-1v-1.2c0-0.5-0.1-0.9-0.3-1S62.4,14.1,61.6,14z"/>
		<path d="M80,7v2.6l-4.1,7.7H80v2.6H69.9V18l4.2-8.4h-3.7V7H80z"/>
	</g>
	<g>
		<path d="M6,9.8c-0.7-0.2-1.5,0.2-1.7,1c-0.5,1.6,1.4,1.4,1.4,1.4c1.4-0.1,1.7-1.1,1.5-1.6C7,10.2,6.5,9.9,6,9.8z"/>
		<path d="M10,13.4c-0.2,0-0.5,0.8-0.5,0.8c-0.3,0.8-0.6,1.5-0.7,2.4c-0.1,1,0.7,0.9,0.7,0.9h1.1c0,0,0.9,0,0.3-2S10.3,13.4,10,13.4
			z"/>
		<path d="M15.2,10c-0.5-0.3-1.2-0.1-1.6,0.4c0,0,0,0.1-0.1,0.1c-0.4,0.4-0.3,1.1,0.1,1.5c0.2,0.1,0.4,0.2,0.6,0.2
			c0.7,0.2,1.4-0.2,1.6-0.9c0-0.1,0-0.2,0-0.3C15.8,10.6,15.6,10.2,15.2,10z"/>
		<path d="M17.9,1.6c-0.8-0.8-1.8-1.3-2.9-1.5L3.3,1.3c0,0-3.3,0.7-3.3,2.2s0.5,12.1,0.5,13s0.7,1.1,1.8,4c0.8,1.9,2.3,3.4,4.2,4.1
			c3.6,0.9,9.1-0.7,9.1-0.7c2.3,0,3.4-4.6,3.4-4.6S20,11.6,20,9S19.3,3,17.9,1.6z M5.6,3.3c2.9-0.1,5.8-0.3,8.7-0.4
			c0.5,0,0.5,0.7,0,0.7C11.4,3.8,8.5,3.9,5.6,4C5.2,4.1,5.2,3.3,5.6,3.3z M3.8,6.1c3.9-0.7,8.1-0.4,12.1-0.4c0.3,0,0.5,0.3,0.4,0.6
			c0,0.2-0.2,0.4-0.4,0.4C12,6.7,7.9,6.3,4,7C3.4,7.1,3.2,6.2,3.8,6.1z M12.4,21.9c-1.5,0.5-3,0.6-4.6,0.4c-0.8-0.1-1.1-0.9-1.1-1.8
			l0.7,0.1c1.6,0.2,3.1,0.2,4.7,0c0.4-0.1,0.7-0.3,1-0.6C13,20.6,13.2,21.7,12.4,21.9z M16,13.5c0,0-2.7,0.6-3,1.4
			c-0.2,0.9-0.3,1.9-0.3,2.9c0,0,0.1,0.6,0.2,1.2l-0.3-0.1c-0.7-0.4-4.4,0-4.9,0.2c-0.5,0.2-0.9,1.1-0.9,1.1c0-0.9,0.2-1.8,0.4-2.6
			c0,0,0.6-2.4,0.1-3.2c-0.7-0.8-1.7-1.3-2.8-1.4c-1.5,0-1.1-2.8-1.1-2.8S3.4,9,5.1,9C6.6,9.1,8,9.2,9.4,9.5c1,0.2,2,0,2.9-0.4
			c1.1-0.6,2.4-0.6,3.4,0c0.7,0.6,1.1,1.4,1.1,2.4C16.8,12.1,16.5,12.9,16,13.5z"/>
	</g>
</g>
</svg>
