<?xml version="1.0" encoding="utf-8"?>
<!-- Generator: Adobe Illustrator 22.0.1, SVG Export Plug-In . SVG Version: 6.00 Build 0)  -->
<svg version="1.1" id="레이어_1" xmlns="http://www.w3.org/2000/svg" xmlns:xlink="http://www.w3.org/1999/xlink" x="0px"
	 y="0px" viewBox="0 0 80 80" style="enable-background:new 0 0 80 80;" xml:space="preserve">
<g>
	<g>
		<path d="M33.9,35.9c-1.1-0.3-2.3,0.3-2.7,1.5c-0.8,2.5,2.2,2.2,2.2,2.2c2.1-0.2,2.7-1.8,2.3-2.5C35.4,36.4,34.7,36,33.9,35.9z"/>
		<path d="M40,41.4c-0.3,0-0.8,1.2-0.8,1.2c-0.5,1.2-0.8,2.4-1,3.6c-0.1,1.6,1,1.4,1,1.4H41c0,0,1.4,0,0.5-3.1
			C40.7,41.4,40.4,41.4,40,41.4z"/>
		<path d="M48,36.1c-0.8-0.5-1.9-0.2-2.4,0.6c0,0.1-0.1,0.1-0.1,0.2c-0.6,0.7-0.5,1.7,0.2,2.3c0.2,0.2,0.5,0.3,0.9,0.4
			c1.1,0.3,2.1-0.3,2.4-1.4c0-0.2,0.1-0.3,0.1-0.5C49,37,48.6,36.4,48,36.1z"/>
		<path d="M52.2,23.3c-1.2-1.2-2.7-2-4.4-2.3l-18.2,1.8c0,0-5,1-5,3.4s0.8,18.6,0.8,20s1.1,1.7,2.7,6.1c1.2,2.9,3.6,5.2,6.5,6.3
			c5.6,1.4,14-1.1,14-1.1c3.5,0,5.3-7,5.3-7s1.4-11.9,1.4-15.9S54.3,25.3,52.2,23.3z M33.3,25.9c4.5-0.2,8.9-0.4,13.4-0.6
			c0.7,0,0.7,1.1,0,1.1c-4.5,0.1-8.9,0.3-13.4,0.6C32.6,27,32.6,25.9,33.3,25.9z M30.4,30.1c6-1.1,12.5-0.6,18.6-0.6
			c0.4,0.1,0.7,0.4,0.6,0.9C49.6,30.7,49.3,31,49,31c-5.9,0-12.3-0.6-18.2,0.5C29.9,31.7,29.5,30.3,30.4,30.1z M43.7,54.5
			c-2.3,0.7-4.7,0.9-7,0.6c-1.2-0.2-1.6-1.4-1.8-2.8l1,0.2c2.4,0.3,4.8,0.3,7.2,0c0.6-0.1,1.1-0.4,1.5-0.9
			C44.7,52.4,44.9,54.1,43.7,54.5z M49.2,41.5c0,0-4.2,0.9-4.6,2.1c-0.3,1.5-0.5,2.9-0.4,4.4c0,0,0.2,0.9,0.3,1.9l-0.5-0.2
			c-1.1-0.6-6.7,0-7.5,0.3c-0.8,0.3-1.5,1.8-1.5,1.8c0.1-1.4,0.3-2.7,0.6-4c0,0,0.9-3.6,0.2-4.8c-1.1-1.2-2.7-1.9-4.3-2.1
			c-2.4,0.1-1.6-4.4-1.6-4.4s0-1.9,2.6-1.9c2.2,0.1,4.4,0.3,6.6,0.7c1.5,0.3,3.1,0.1,4.4-0.7c1.6-0.9,3.6-0.9,5.3,0
			c1.1,0.9,1.6,2.2,1.6,3.6C50.4,39.4,50,40.6,49.2,41.5z"/>
	</g>
	<g>
		<path d="M4,26.9l1.5,0.4l-0.7,3.1l5.9,1.4l-0.5,2.1l-5.9-1.4l-0.7,3.1L2,35.3L4,26.9z"/>
		<path d="M14.9,22.5l-2.6-1.5l-2.4,4.1l2.6,1.5l-1.1,1.8l-6.5-3.8L6,22.8l2.6,1.5l2.4-4.1l-2.6-1.5l1.1-1.8l6.5,3.8L14.9,22.5z"/>
		<path d="M16,16.2l1.2,1.3l4.4-4l1,1.1l-6,5.4l-5.1-5.6l6-5.4l1,1.1l-4.4,4l0.8,0.9l4-3.6l1,1.1L16,16.2z"/>
		<path d="M33.6,8.3l0.3-6.1L36,1.5l-0.5,8l-2.8,0.8L30,6.2l0,5l-2.8,0.8l-4.8-6.5l2.2-0.6l3.6,5l0-6l2.1-0.6L33.6,8.3z"/>
		<path d="M40.7,6.2l-0.1,1.8l5.9,0.4l-0.1,1.5l-8-0.6l0.6-7.5l8,0.6l-0.1,1.5l-5.9-0.4l-0.1,1.3l5.4,0.4l-0.1,1.5L40.7,6.2z"/>
		<path d="M47,10.3L49,3l1.9,0.5l-2,7.3L47,10.3z"/>
		<path d="M53.4,4.1l5.3,2.7C59,7,59.3,7.2,59.5,7.4C59.8,7.7,60,8,60.1,8.3c0.1,0.3,0.2,0.7,0.2,1c0,0.4-0.1,0.7-0.3,1.1
			c-0.1,0.2-0.2,0.4-0.4,0.5c-0.2,0.1-0.3,0.3-0.5,0.3c-0.2,0.1-0.4,0.1-0.6,0.2c-0.2,0-0.4,0-0.6,0c0.2,0.1,0.3,0.3,0.4,0.5
			c0.1,0.2,0.2,0.4,0.2,0.6c0,0.2,0.1,0.4,0,0.7s-0.1,0.4-0.2,0.7l-0.2,0.3c-0.1,0.1-0.1,0.3-0.2,0.4c0,0.1-0.1,0.2-0.1,0.2
			c0,0.1,0,0.1,0,0.1L56.2,14c0,0,0-0.1,0-0.1c0-0.1,0-0.1,0.1-0.2c0-0.1,0.1-0.2,0.2-0.4c0.1-0.2,0.2-0.5,0.2-0.7
			c0-0.2-0.1-0.4-0.2-0.6s-0.2-0.3-0.4-0.5c-0.1-0.1-0.3-0.2-0.4-0.3l-2.8-1.4l-1,2l-1.9-1L53.4,4.1z M56.8,10.1
			c0.1,0.1,0.3,0.1,0.4,0.1c0.1,0,0.3,0,0.4-0.1c0.1,0,0.3-0.1,0.4-0.2c0.1-0.1,0.2-0.2,0.3-0.4c0.1-0.2,0.1-0.3,0.1-0.5
			c0-0.2,0-0.3-0.1-0.4c-0.1-0.1-0.1-0.3-0.2-0.4c-0.1-0.1-0.2-0.2-0.3-0.3l-3.3-1.7l-1,2L56.8,10.1z"/>
		<path d="M67.4,13.6c0.4,0.4,0.8,0.9,1,1.3c0.3,0.4,0.4,0.8,0.4,1.3c0,0.4-0.1,0.8-0.3,1.3c-0.2,0.4-0.5,0.9-1,1.3l-0.3,0.4
			c-0.5,0.5-0.9,0.8-1.3,1c-0.4,0.2-0.9,0.3-1.3,0.3c-0.4,0-0.8-0.2-1.3-0.4c-0.4-0.2-0.8-0.6-1.3-1l-3.7-3.7l5.3-5.4L67.4,13.6z
			 M66.2,17.4c0.3-0.3,0.5-0.6,0.7-0.8c0.1-0.2,0.2-0.4,0.2-0.6c0-0.2,0-0.4-0.2-0.6s-0.3-0.4-0.5-0.7l-2.2-2.2l-3.2,3.2l2.2,2.2
			c0.2,0.2,0.5,0.4,0.7,0.5c0.2,0.1,0.4,0.2,0.6,0.2c0.2,0,0.4-0.1,0.6-0.2c0.2-0.1,0.5-0.4,0.8-0.7L66.2,17.4z"/>
		<path d="M75.5,26.1l0.8,1.8l-4.4,1.9c-0.4,0.2-0.9,0.3-1.2,0.4c-0.4,0.1-0.8,0-1.1-0.2c-0.3-0.2-0.7-0.4-1-0.8
			c-0.3-0.4-0.6-0.9-0.9-1.6c-0.5-1.2-0.7-2.1-0.4-2.9c0.2-0.8,0.8-1.4,1.7-1.8l0.8,1.8c-0.1,0.1-0.2,0.1-0.4,0.2
			c-0.1,0.1-0.2,0.2-0.3,0.4c-0.1,0.2-0.1,0.4-0.1,0.6c0,0.2,0.1,0.6,0.2,0.9c0.2,0.4,0.3,0.6,0.5,0.8c0.2,0.2,0.4,0.3,0.5,0.3
			c0.2,0,0.3,0.1,0.5,0c0.2,0,0.3-0.1,0.4-0.1L75.5,26.1z"/>
		<path d="M70.8,40.1L70.5,38l1.4-0.8l-0.5-3.5l-1.6-0.4l-0.3-2.1l7.9,1.9l0.4,3L70.8,40.1z M73.3,36.3l3.1-1.6L73,33.9L73.3,36.3z"
			/>
		<path d="M72,48l5.1,0.8l-0.3,2.1l-7.4-1.2l0.4-2.6l5.9-3.9l-5.1-0.8l0.3-2.1l7.4,1.2l-0.4,2.6L72,48z"/>
		<path d="M67.5,58.1l4.6,2.5l-1,1.9l-6.6-3.6l1.3-2.3l6.9-1.7L68,52.3l1-1.9l6.6,3.6l-1.3,2.3L67.5,58.1z"/>
		<path d="M57.7,65.2l1.5-1.5l1.5,0.7l2.5-2.4l-0.6-1.5l1.5-1.5l3,7.5l-2.2,2.1L57.7,65.2z M62.3,65l3.1,1.6L64,63.4L62.3,65z"/>
		<path d="M55.4,74.8c-0.3,0.1-0.6,0.2-0.9,0.3c-0.3,0-0.6,0-0.8,0c-0.3-0.1-0.5-0.2-0.7-0.4c-0.2-0.2-0.4-0.4-0.6-0.7
			c-0.1-0.2-0.1-0.3-0.1-0.5c0-0.2,0-0.4,0-0.5c0-0.2,0.1-0.3,0.2-0.5c0.1-0.1,0.2-0.3,0.3-0.3c-0.2,0.1-0.5,0.1-0.7,0.1
			c-0.2,0-0.4,0-0.6-0.1c-0.2-0.1-0.4-0.2-0.5-0.3c-0.2-0.1-0.3-0.3-0.4-0.5c-0.2-0.3-0.2-0.6-0.3-0.9c0-0.3,0-0.6,0.1-0.8
			c0.1-0.3,0.3-0.5,0.5-0.7c0.2-0.2,0.5-0.4,0.7-0.5l6-3l3.4,6.7L55.4,74.8z M57.1,69.1l-0.7-1.5l-3.7,1.9c-0.1,0-0.2,0.1-0.2,0.1
			c-0.1,0.1-0.2,0.1-0.2,0.2c-0.1,0.1-0.1,0.2-0.1,0.3c0,0.1,0,0.3,0.1,0.5c0.1,0.2,0.2,0.3,0.3,0.3c0.1,0.1,0.2,0.1,0.3,0.1
			c0.1,0,0.2,0,0.3,0c0.1,0,0.2-0.1,0.3-0.1L57.1,69.1z M54.5,72.1c-0.1,0-0.2,0.1-0.2,0.1c-0.1,0.1-0.2,0.1-0.2,0.2
			c-0.1,0.1-0.1,0.2-0.1,0.3c0,0.1,0,0.2,0.1,0.4c0.1,0.2,0.2,0.3,0.3,0.3c0.1,0.1,0.2,0.1,0.3,0.1c0.1,0,0.2,0,0.3-0.1
			c0.1,0,0.2-0.1,0.3-0.1l3.3-1.6l-0.6-1.2L54.5,72.1z"/>
		<path d="M48.8,69.2l1.9,7.3L48.8,77l-1.9-7.3L48.8,69.2z"/>
		<path d="M36.7,77.9c-0.3,0-0.6-0.1-0.9-0.2c-0.3-0.1-0.5-0.2-0.7-0.4c-0.2-0.2-0.4-0.4-0.5-0.7c-0.1-0.3-0.2-0.6-0.1-0.9
			c0-0.2,0.1-0.4,0.1-0.5c0.1-0.2,0.2-0.3,0.3-0.4c0.1-0.1,0.2-0.2,0.4-0.3c0.1-0.1,0.3-0.1,0.4-0.2c-0.2-0.1-0.4-0.1-0.6-0.3
			c-0.2-0.1-0.4-0.3-0.5-0.4c-0.1-0.2-0.2-0.3-0.3-0.5c-0.1-0.2-0.1-0.4-0.1-0.6c0-0.4,0.1-0.7,0.2-0.9s0.3-0.5,0.5-0.7
			c0.2-0.2,0.5-0.3,0.8-0.4c0.3-0.1,0.6-0.1,0.9-0.1l6.7,0.3l-0.4,7.5L36.7,77.9z M41,73.7l0.1-1.6l-4.1-0.2c-0.1,0-0.2,0-0.3,0
			c-0.1,0-0.2,0-0.3,0.1c-0.1,0-0.2,0.1-0.2,0.2C36,72.3,36,72.4,36,72.6c0,0.2,0,0.3,0.1,0.4s0.2,0.2,0.3,0.3
			c0.1,0.1,0.2,0.1,0.3,0.1c0.1,0,0.2,0,0.3,0L41,73.7z M37.2,75c-0.1,0-0.2,0-0.3,0c-0.1,0-0.2,0-0.3,0.1c-0.1,0-0.2,0.1-0.2,0.2
			c-0.1,0.1-0.1,0.2-0.1,0.4c0,0.2,0,0.3,0.1,0.4c0,0.1,0.1,0.2,0.2,0.2s0.2,0.1,0.3,0.1c0.1,0,0.2,0,0.3,0l3.6,0.2l0.1-1.4L37.2,75
			z"/>
		<path d="M30.7,72.5l0.6-1.7l-5.6-1.9l0.5-1.4l7.6,2.6l-2.5,7.1l-7.6-2.6l0.5-1.4l5.6,1.9l0.4-1.2l-5.1-1.8l0.5-1.4L30.7,72.5z"/>
		<path d="M21.1,65.6c-0.4-0.3-0.8-0.5-1.2-0.6c-0.3-0.1-0.6-0.1-0.9,0c-0.3,0.1-0.5,0.2-0.7,0.3l1.6,1.2l-0.9,1.2l-3.4-2.5l2.5-3.4
			l1.2,0.9l-0.7,1c0.2-0.1,0.4-0.1,0.7-0.1c0.3,0,0.5,0,0.8,0c0.3,0.1,0.6,0.1,0.9,0.3c0.3,0.1,0.6,0.3,0.9,0.5
			c0.5,0.4,0.9,0.8,1.3,1.3c0.4,0.5,0.6,1,0.8,1.5c0.2,0.5,0.2,1.1,0.1,1.7c-0.1,0.6-0.3,1.1-0.7,1.6c-0.4,0.5-0.8,0.9-1.4,1.2
			S21.2,72,20.6,72c-0.6,0-1.1-0.1-1.7-0.3c-0.6-0.2-1.1-0.5-1.6-0.9c-0.6-0.4-1.1-0.9-1.5-1.3c-0.4-0.5-0.7-0.9-0.8-1.3
			c-0.2-0.4-0.2-0.9-0.2-1.2c0-0.4,0.2-0.7,0.4-1.1l1.7,1.3c-0.1,0.2-0.1,0.3-0.1,0.5c0,0.2,0.1,0.4,0.3,0.6
			c0.1,0.2,0.3,0.4,0.5,0.7c0.2,0.2,0.4,0.4,0.6,0.6c0.3,0.2,0.6,0.4,1,0.5c0.3,0.1,0.6,0.2,1,0.2c0.3,0,0.6-0.1,0.9-0.3
			c0.3-0.2,0.6-0.4,0.8-0.7c0.2-0.3,0.4-0.7,0.5-1c0.1-0.3,0.1-0.6,0-0.9c-0.1-0.3-0.2-0.6-0.5-0.9C21.7,66.1,21.4,65.9,21.1,65.6z"
			/>
		<path d="M17.9,61l-5.6,5l-1.3-1.5l5.6-5L17.9,61z"/>
		<path d="M10,53.6l-4.6,2.5l-1-1.9l6.6-3.7l1.3,2.3l-2.2,6.7l4.6-2.5l1,1.9l-6.6,3.7l-1.3-2.3L10,53.6z"/>
		<path d="M4,45.6l1.1,5.7l-1.6,0.3l-1.7-8.4l1.6-0.3l5.3,4.8l-1.1-5.7l1.6-0.3l1.7,8.4l-1.6,0.3L4,45.6z"/>
	</g>
</g>
</svg>
