<svg xmlns="http://www.w3.org/2000/svg" viewBox="0 0 124.05 21.68"><title>2자산 6</title><g id="레이어_2" data-name="레이어 2"><g id="레이어_1-2" data-name="레이어 1"><path d="M26.64,17a2.76,2.76,0,0,1-2.14,1.09h-.09A3.25,3.25,0,0,1,22,16.94a3,3,0,0,1-.7-2.46,2.81,2.81,0,0,1,1.35-2,.85.85,0,0,1,.88,0,1,1,0,0,1,.52.87.87.87,0,0,1-.45.79.9.9,0,0,0-.47.87A1.44,1.44,0,0,0,24,16.12a.92.92,0,0,0,.81,0c.47-.25.68-1,.8-1.53a10.81,10.81,0,0,0,.1-2.67c0-.35,0-.71,0-1.06V10.8a42.61,42.61,0,0,0-.18-4.36.78.78,0,0,1,.22-.61,1,1,0,0,1,.72-.34,1,1,0,0,1,.94.93,39,39,0,0,1,.17,4c0,.65,0,1.33,0,2C27.62,14,27.59,15.72,26.64,17Z"/><path d="M36.72,18.08c-.52,0-.69,0-1,0s-.67-.16-.71-.62,0-.62,0-1.22-.05-.91,0-.91c0-.33,0-.66,0-1s-.31-.15-.83-.14c-1.08,0-1.24,0-2.2,0-.56-.07-.41.21-.53.82s-.21,1.83-.28,2.36-.21.66-.49.66h-.83c-.56,0-1.13.14-1-.43,0-.3.24-1.24.26-1.43.18-1,.25-1.14.38-2.07.1-.6.28-1.47.39-2,.14-.67.15-1.15.29-1.82a11.58,11.58,0,0,1,.8-2.83,4.43,4.43,0,0,1,1.46-1.72,2,2,0,0,1,1.21-.34,1.87,1.87,0,0,1,1.69.79,3.85,3.85,0,0,1,1,2.07c.1.73.21,1.47.29,2.21.06.59.07,1.18.12,1.77.07.76.17,1.52.25,2.29l.09.84c0,.52.07,1,.13,1.56C37.16,17.73,37.3,18,36.72,18.08Zm-2-6c-.05-.73-.1-1.47-.16-2.21,0-.38-.08-.76-.14-1.14A.83.83,0,0,0,33.47,8a1.19,1.19,0,0,0-1.15,1l-.48,1.91q-.11.45-.18.9c-.07.57-.16.8.05.8.54,0,1.77,0,2.74-.07C34.76,12.48,34.71,12.41,34.71,12.08Z"/><path d="M47.35,15.61a10.92,10.92,0,0,1-.08,1.14l0,.35a.85.85,0,0,1-.24.66c-.11.12-.18.13-.58.14a4.13,4.13,0,0,1-.56,0h-.2a1.24,1.24,0,0,1-1.11-.59,14.14,14.14,0,0,1-.85-1.49c-.18-.36-.36-.73-.56-1.06-.42-.7-1-1.78-1.4-2.51v0a2.14,2.14,0,0,0-.2-.32.31.31,0,0,0-.3-.12A.3.3,0,0,0,41,12a1,1,0,0,0,0,.3v.07c0,.55,0,1.24.06,1.9s.07,1.56.06,2.19a3.4,3.4,0,0,1-.15.92c-.12.37-.2.53-.57.6a2.06,2.06,0,0,1-1.1,0,.87.87,0,0,1-.59-.84,11.8,11.8,0,0,1,0-1.33c0-.19,0-.38,0-.6,0-.59,0-1.11,0-1.88s0-1.2,0-1.64,0-1,0-1.86c0-.09,0-.23,0-.39a19.25,19.25,0,0,1,.07-2.38c0-.09,0-.19.05-.33s0-.27,0-.46v0c.16-.56.19-.7.72-.7h.26a5.32,5.32,0,0,1,.91,0c.37.06.48.27.66.64.49,1,.89,1.93,1.15,2.56l.3.65c.25.52.49,1,.69,1.48,1,2.24,1.23,2.19,1.32,2.17s.15-.23.15-.3V12.2c0-.65,0-1.47,0-1.91,0-.7,0-1.16,0-1.55,0-.66,0-1.14-.06-2.32a1,1,0,0,1,.28-.74.57.57,0,0,1,.35-.18H46a4.94,4.94,0,0,1,.76,0,.42.42,0,0,1,.36.35,2.63,2.63,0,0,1,.07.58c0,.49,0,.85,0,1.2s0,.85,0,1.45c0,.31,0,.52,0,.75s0,.33,0,.55,0,.8,0,1.33v.72l0,1C47.33,14.11,47.34,14.57,47.35,15.61Z"/><path d="M57.86,15.61a8.74,8.74,0,0,1-.08,1.14l0,.35a.92.92,0,0,1-.24.66c-.12.12-.19.13-.59.14a4,4,0,0,1-.55,0h-.2a1.24,1.24,0,0,1-1.12-.59,12.53,12.53,0,0,1-.84-1.49c-.19-.36-.37-.73-.57-1.06-.42-.7-1-1.78-1.4-2.51v0a2.14,2.14,0,0,0-.2-.32.31.31,0,0,0-.3-.12.32.32,0,0,0-.22.24,1,1,0,0,0,0,.3v.07c0,.55,0,1.24.06,1.9s.07,1.56.06,2.19a3,3,0,0,1-.15.92c-.12.37-.2.53-.57.6a2.06,2.06,0,0,1-1.1,0,.87.87,0,0,1-.59-.84,11.8,11.8,0,0,1,0-1.33c0-.19,0-.38,0-.6,0-.59,0-1.11,0-1.88s0-1.2,0-1.64,0-1,0-1.86c0-.09,0-.23,0-.39a19.25,19.25,0,0,1,.07-2.38,1.35,1.35,0,0,0,0-.33c0-.11,0-.27,0-.46l0,0c.15-.56.19-.7.71-.7h.26a5.32,5.32,0,0,1,.91,0c.37.06.49.27.66.64.5,1,.89,1.93,1.15,2.56l.31.65c.24.52.48,1,.68,1.48,1,2.24,1.23,2.19,1.33,2.17s.14-.23.14-.3V12.2c0-.65,0-1.47,0-1.91,0-.7,0-1.16,0-1.55,0-.66,0-1.14-.06-2.32a1,1,0,0,1,.28-.74.57.57,0,0,1,.35-.18h.44a4.93,4.93,0,0,1,.76,0,.42.42,0,0,1,.36.35,2.62,2.62,0,0,1,.08.58c0,.49,0,.85,0,1.2s0,.85,0,1.45c0,.31,0,.52,0,.75s0,.33,0,.55,0,.8,0,1.33v.72l0,1C57.84,14.11,57.85,14.57,57.86,15.61Z"/><path d="M67.09,18.08c-.53,0-.69,0-1,0s-.66-.16-.7-.62,0-.62-.05-1.22,0-.91,0-.91v-1c0-.27-.31-.15-.84-.14-1.08,0-1.23,0-2.19,0-.57-.07-.42.21-.54.82s-.2,1.83-.27,2.36-.21.66-.49.66h-.84c-.55,0-1.12.14-1-.43,0-.3.24-1.24.27-1.43.18-1,.25-1.14.38-2.07.09-.6.28-1.47.38-2,.14-.67.16-1.15.3-1.82a11.58,11.58,0,0,1,.8-2.83,4.41,4.41,0,0,1,1.45-1.72,2,2,0,0,1,1.21-.34,1.89,1.89,0,0,1,1.7.79,3.85,3.85,0,0,1,1,2.07c.09.73.21,1.47.29,2.21.06.59.06,1.18.12,1.77.07.76.16,1.52.25,2.29,0,.28.06.56.08.84,0,.52.08,1,.14,1.56C67.53,17.73,67.66,18,67.09,18.08Zm-2-6c0-.73-.09-1.47-.16-2.21,0-.38-.07-.76-.13-1.14A.83.83,0,0,0,63.84,8a1.17,1.17,0,0,0-1.15,1c-.16.64-.33,1.27-.48,1.91q-.1.45-.18.9c-.07.57-.16.8,0,.8.55,0,1.77,0,2.75-.07C65.13,12.48,65.08,12.41,65.07,12.08Z"/><path d="M77.4,14.67a3.89,3.89,0,0,1-2,2.79.85.85,0,0,1-.26.11,8,8,0,0,1-2.74.51c-.54,0-1.09,0-1.62-.08a12.13,12.13,0,0,1-1.34-.24.3.3,0,0,1-.27-.29c0-.11,0-.21,0-.32,0-1-.11-1.95-.12-3,0-1.69,0-2.65,0-5.18,0-.31,0-.9,0-1.22a7.88,7.88,0,0,1,.17-1.43A.84.84,0,0,1,70,5.6a9.15,9.15,0,0,1,2.15-.1c.27,0,.53,0,.8,0a2.71,2.71,0,0,1,1.36.24,3.42,3.42,0,0,1,1.67,1.31,2.92,2.92,0,0,1,.49,1.81,2.44,2.44,0,0,1-.91,1.69c-.16.14-.33.27-.57.45.19.14.31.24.45.33A5.19,5.19,0,0,1,77.07,13,2.27,2.27,0,0,1,77.4,14.67ZM71.2,10c0,.45.13.56.6.53l.61,0a3.05,3.05,0,0,0,2-.91.76.76,0,0,0,.26-.75,1.37,1.37,0,0,0-.72-1,4.17,4.17,0,0,0-2.33-.47c-.35,0-.45.13-.45.5s0,.74,0,1.11v.41C71.17,9.64,71.2,9.6,71.2,10Zm4.16,3.86a1.26,1.26,0,0,0-.27-.7,1.67,1.67,0,0,0-1.25-.67l-1-.06h-.61a5.81,5.81,0,0,0-.59,0c-.27,0-.38.16-.38.43l.06,2.8c0,.32.08.38.41.41s.55,0,.83,0a4.17,4.17,0,0,0,1.49-.17,1.66,1.66,0,0,0,1-.86A2.16,2.16,0,0,0,75.36,13.82Z"/><path d="M81.25,16.42a5.56,5.56,0,0,1-.08.8,1.14,1.14,0,0,1-.4.68,1,1,0,0,1-1,.12,1.05,1.05,0,0,1-.7-.86,10.91,10.91,0,0,1-.26-2.48c0-1-.07-1.42-.09-1.81s0-1.3,0-1.81c0-.9,0-.61,0-1.51,0-.57,0-1.31,0-1.87a3.38,3.38,0,0,1,.43-1.85.87.87,0,0,1,1-.27,1.19,1.19,0,0,1,.68.85,22.23,22.23,0,0,1,.29,2.3c0,1.28,0,2.56,0,3.84S81.24,15.13,81.25,16.42Z"/><path d="M94.06,17.07a6.45,6.45,0,0,1-5.81.49c-1.5-.67-2.25-2.42-2.6-3.93A8.32,8.32,0,0,1,86.3,8.3a4.54,4.54,0,0,1,1.46-2A4.27,4.27,0,0,1,89.6,5.6a5.91,5.91,0,0,1,4.15.8,1,1,0,1,1-1,1.75,3.94,3.94,0,0,0-2.93-.53,2.16,2.16,0,0,0-1.1.55,4.76,4.76,0,0,0-.8,1.54,6.07,6.07,0,0,0-.19,3.78c.3,1,.71,2.1,1.81,2.37A4.42,4.42,0,0,0,93,15.32,1,1,0,0,1,94.06,17.07Z"/><path d="M103,17.75a4.74,4.74,0,0,1-1.86.36c-1.1,0-1.73,0-2.84,0a14.2,14.2,0,0,1-1.71-.19.87.87,0,0,1-.72-.91V11.52h0V7.25c0-.41,0-.82,0-1.23a.32.32,0,0,1,.24-.38,2.3,2.3,0,0,1,.51-.1,1.64,1.64,0,0,1,1,0c.28.09.54.17.56.46,0,.09,0,.37,0,.46,0,1.58,0,2.87,0,4.45,0,1.13,0,2,0,3.1,0,.07,0,.71,0,.78,0,1,.37.79.76.86s.88.11,1.13.12l2.57,0c.4,0,.61-.11.86.21A1.1,1.1,0,0,1,103,17.75Z"/><path d="M114.16,17.55c-.85.55-2,.75-2.51-.31-.08-.16-.14-.33-.21-.49a3.31,3.31,0,0,1-.32.33,4.79,4.79,0,0,1-4.45.75c-2-.68-2.34-3.25-2.41-5.08a49.75,49.75,0,0,1,.41-6.34,1,1,0,0,1,1-1,1,1,0,0,1,1,1,48.62,48.62,0,0,0-.41,6.26,7.65,7.65,0,0,0,.35,2.33,1.54,1.54,0,0,0,.52.88c.22.18.25.16.57.2a3.78,3.78,0,0,0,1.6-.06,1.53,1.53,0,0,0,1-.84,4.53,4.53,0,0,0,.31-1.33c0-.59.06-1.19.07-1.77,0-1.83-.08-3.64-.2-5.46-.08-1.23,1.8-1.21,1.9,0,.19,2.1.18,4.21.28,6.31a9.37,9.37,0,0,0,.42,2.4c.06.2.13.39.2.58h0C114.23,15.23,115.18,16.88,114.16,17.55Z"/><path d="M124,14.67a3.88,3.88,0,0,1-2,2.79.85.85,0,0,1-.26.11,8.11,8.11,0,0,1-2.75.51c-.54,0-1.08,0-1.61-.08a12.13,12.13,0,0,1-1.34-.24.31.31,0,0,1-.28-.29c0-.11,0-.21,0-.32-.05-1-.12-1.95-.13-3,0-1.69,0-2.65,0-5.18,0-.31,0-.9,0-1.22a8.74,8.74,0,0,1,.18-1.43.83.83,0,0,1,.72-.74,9.1,9.1,0,0,1,2.15-.1c.27,0,.53,0,.79,0a2.77,2.77,0,0,1,1.37.24,3.47,3.47,0,0,1,1.67,1.31,3,3,0,0,1,.49,1.81,2.44,2.44,0,0,1-.91,1.69l-.58.45c.19.14.32.24.46.33A5.19,5.19,0,0,1,123.69,13,2.22,2.22,0,0,1,124,14.67ZM117.82,10c0,.45.13.56.59.53l.61,0a3.08,3.08,0,0,0,2-.91.81.81,0,0,0,.26-.75,1.38,1.38,0,0,0-.73-1,4.16,4.16,0,0,0-2.32-.47c-.35,0-.46.13-.46.5V8.88s0,.41,0,.41C117.79,9.64,117.81,9.6,117.82,10ZM122,13.82a1.18,1.18,0,0,0-.26-.7,1.71,1.71,0,0,0-1.26-.67l-1-.06h-.6c-.3,0-.3,0-.6,0a.36.36,0,0,0-.37.43l.06,2.8c0,.32.07.38.41.41s.55,0,.82,0a4.12,4.12,0,0,0,1.49-.17,1.71,1.71,0,0,0,1.06-.86A2.15,2.15,0,0,0,122,13.82Z"/><path d="M5.29,8.51a1.24,1.24,0,0,0-1.52.85C3.33,10.76,5,10.63,5,10.63c1.21-.11,1.52-1,1.31-1.42A1.28,1.28,0,0,0,5.29,8.51Z"/><path d="M8.78,11.64c-.19,0-.43.66-.43.66a8.42,8.42,0,0,0-.59,2.07c-.08.89.59.78.59.78h1s.82,0,.3-1.76S9,11.64,8.78,11.64Z"/><path d="M13.31,8.64a1,1,0,0,0-1.43.46.91.91,0,0,0,.59,1.5A1.13,1.13,0,0,0,13.9,9.54,1.1,1.1,0,0,0,13.31,8.64Z"/><path d="M15.71,1.33A4.69,4.69,0,0,0,13.21,0L2.86,1S0,1.59,0,2.92.48,13.53.48,14.33s.63.95,1.54,3.5a6.81,6.81,0,0,0,3.7,3.61c3.17.8,8-.64,8-.64,2,0,3-4,3-4s.8-6.79.8-9.07S16.88,2.49,15.71,1.33ZM4.94,2.79c2.54-.13,5.07-.24,7.61-.33.41,0,.41.62,0,.64-2.54.08-5.07.19-7.61.32C4.53,3.44,4.53,2.81,4.94,2.79ZM3.3,5.21c3.43-.65,7.11-.32,10.58-.34a.43.43,0,0,1,0,.85c-3.39,0-7-.33-10.36.31C3,6.13,2.76,5.32,3.3,5.21ZM10.84,19.1a8.7,8.7,0,0,1-4,.32c-.71-.12-.94-.81-1-1.6l.58.13a15.1,15.1,0,0,0,4.12,0,1.32,1.32,0,0,0,.85-.54C11.43,17.92,11.53,18.91,10.84,19.1ZM14,11.71s-2.37.5-2.62,1.2a11.44,11.44,0,0,0-.25,2.52s.1.54.17,1.06L11,16.4c-.6-.36-3.84,0-4.28.16s-.83,1-.83,1a9.4,9.4,0,0,1,.37-2.28s.51-2.06.12-2.76a4,4,0,0,0-2.44-1.2C2.6,11.36,3,8.84,3,8.84S3,7.78,4.48,7.78a28.33,28.33,0,0,1,3.75.39,3.7,3.7,0,0,0,2.51-.39,3.07,3.07,0,0,1,3,0,2.63,2.63,0,0,1,.92,2.06A2.84,2.84,0,0,1,14,11.71Z"/></g></g></svg>