<svg xmlns="http://www.w3.org/2000/svg" viewBox="0 0 78.4 66.82"><title>2자산 7</title><g id="레이어_2" data-name="레이어 2"><g id="레이어_1-2" data-name="레이어 1"><path d="M32.39,18.35a2.68,2.68,0,0,0-3.27,1.83c-.95,3,2.59,2.75,2.59,2.75,2.62-.25,3.28-2.12,2.83-3.07A2.79,2.79,0,0,0,32.39,18.35Z"/><path d="M49.21,18.62a2.16,2.16,0,0,0-3.09,1c-1.59,2.67,1.28,3.23,1.28,3.23a2.44,2.44,0,0,0,3.08-2.3A2.39,2.39,0,0,0,49.21,18.62Z"/><path d="M39.93,25.09c-.41,0-.92,1.43-.92,1.43A17.82,17.82,0,0,0,37.72,31C37.55,32.9,39,32.67,39,32.67h2.06s1.77-.08.66-3.8S40.44,25.09,39.93,25.09Z"/><path d="M54.87,2.86A10.06,10.06,0,0,0,49.49,0L27.16,2.06S21,3.43,21,6.29s1.49,22.92,1.8,24.61.61,2.06,2.55,7.55,8,7.79,8,7.79c6.84,1.71,17.33-1.38,17.33-1.38,4.38,0,6.5-8.58,6.5-8.58s1.71-14.65,1.71-19.57S57.39,5.38,54.87,2.86ZM30,5.94q9.82-.51,19.67-.84c1.06,0,1.06,1.61,0,1.64q-9.84.34-19.67.85C29,7.64,29,6,30,5.94Zm-1.92,5.3c7.4-1.41,15.33-.7,22.83-.73a.92.92,0,0,1,0,1.83c-7.32,0-15.13-.71-22.34.67C27.44,13.23,27,11.46,28.1,11.24Zm16.28,30a19.28,19.28,0,0,1-8.66.69c-1.53-.27-2-1.76-2.09-3.45.31.08.71.17,1.25.28,3.74.76,7.63,0,8.89,0a2.9,2.9,0,0,0,1.84-1.17C45.65,38.65,45.86,40.78,44.38,41.2Zm6.87-16s-5.12,1.07-5.65,2.6a24.91,24.91,0,0,0-.53,5.42s.2,1.17.36,2.3c-.41-.1-.78-.21-.78-.21-1.3-.76-8.28,0-9.24.35S33.63,37.94,33.63,38a20.62,20.62,0,0,1,.8-4.91s1.09-4.46.26-6c0,0-2.44-2.6-5.26-2.6s-2-5.42-2-5.42,0-2.28,3.21-2.28a61.52,61.52,0,0,1,8.08.83,8,8,0,0,0,5.42-.83c3.05-1.53,5.88-.54,6.41,0a5.63,5.63,0,0,1,2,4.42A6.12,6.12,0,0,1,51.25,25.25Z"/><path d="M1.94,45.62a2.1,2.1,0,0,1-1.56-1l0-.06a2.5,2.5,0,0,1-.22-2,2.35,2.35,0,0,1,1.33-1.43,2.21,2.21,0,0,1,1.85.09.65.65,0,0,1,.37.56.79.79,0,0,1-.36.69.68.68,0,0,1-.69,0,.69.69,0,0,0-.76,0,1.12,1.12,0,0,0-.41,1,.7.7,0,0,0,.31.53A1.68,1.68,0,0,0,3.07,44a8,8,0,0,0,1.78-1l.68-.44,0,0A32.57,32.57,0,0,0,8.36,40.7a.61.61,0,0,1,.48-.1.77.77,0,0,1,.51.34.73.73,0,0,1-.23,1,29.1,29.1,0,0,1-2.56,1.7l-1.3.82A5.33,5.33,0,0,1,1.94,45.62Z"/><path d="M6.93,53.26c-.26-.3-.33-.41-.51-.59a.45.45,0,0,1,0-.71c.32-.34.35-.32.68-.65s.5-.48.5-.47l.57-.49c.15-.13-.07-.25-.34-.55-.54-.62-.65-.68-1.12-1.24-.24-.36-.33-.14-.74.1s-1.15.8-1.49,1-.49.22-.63,0l-.42-.47c-.25-.34-.64-.58-.26-.81.2-.12.83-.48,1-.57.68-.4.78-.42,1.38-.81.39-.25,1-.58,1.32-.76s.73-.49,1.19-.74a8.13,8.13,0,0,1,2-1,3.46,3.46,0,0,1,1.72,0,1.48,1.48,0,0,1,.81.53A1.42,1.42,0,0,1,13,46.47a2.9,2.9,0,0,1-.67,1.63c-.38.43-.74.86-1.13,1.28s-.64.63-1,1-.79.85-1.18,1.28l-.45.48c-.27.28-.56.56-.82.85S7.27,53.55,6.93,53.26Zm2.44-4.17c.4-.4.8-.79,1.19-1.2.21-.21.4-.42.59-.65a.63.63,0,0,0,0-.91A.9.9,0,0,0,10,46.15l-1.34.68c-.21.11-.41.23-.61.35-.36.25-.54.31-.43.42.26.33.88,1,1.41,1.55C9.17,49.33,9.19,49.26,9.37,49.09Z"/><path d="M15.73,58.06a7.21,7.21,0,0,1-.58.66l-.18.19a.66.66,0,0,1-.45.29c-.13,0-.17,0-.42-.19a2.24,2.24,0,0,1-.34-.24l-.13-.09a.93.93,0,0,1-.4-.87,8.59,8.59,0,0,1,.17-1.3c.06-.3.12-.61.15-.9.07-.62.19-1.56.31-2.17v0a.92.92,0,0,0,0-.29.22.22,0,0,0-.37-.17.8.8,0,0,0-.15.17l0,0c-.25.33-.55.76-.84,1.18s-.68,1-1,1.36a2.67,2.67,0,0,1-.52.48c-.24.18-.37.23-.62.11a1.54,1.54,0,0,1-.66-.53.65.65,0,0,1,0-.77c.19-.29.38-.52.61-.82l.29-.35c.27-.37.5-.68.86-1.15l.77-1c.25-.31.48-.6.87-1.12,0-.05.11-.14.18-.23a13,13,0,0,1,1.14-1.42,1.52,1.52,0,0,0,.18-.18l.25-.26,0,0c.35-.27.44-.34.75-.09h0l.15.11a3.58,3.58,0,0,1,.54.45c.2.2.17.38.11.69-.15.82-.35,1.58-.49,2.08l-.11.54c-.09.43-.17.83-.27,1.21-.44,1.81-.26,1.9-.19,1.93s.19-.07.23-.11l.26-.35c.3-.4.68-.89.87-1.16l.7-1,1-1.43a.8.8,0,0,1,.51-.33.44.44,0,0,1,.3.06l.27.19a3.92,3.92,0,0,1,.45.36.3.3,0,0,1,.06.38,1.92,1.92,0,0,1-.22.39l-.56.72c-.21.26-.41.51-.68.87l-.33.47c-.06.1-.13.21-.23.35l-.6.81-.33.44-.42.59Z"/><path d="M24.26,62.34a8.24,8.24,0,0,1-.42.77l-.14.23c-.11.19-.17.3-.38.38s-.17,0-.45-.1a2.27,2.27,0,0,1-.38-.16l-.15-.06a.93.93,0,0,1-.58-.76,11,11,0,0,1-.11-1.31c0-.31,0-.62,0-.92-.07-.61-.15-1.56-.17-2.18v0a1.33,1.33,0,0,0,0-.28.26.26,0,0,0-.17-.18.23.23,0,0,0-.23.09.78.78,0,0,0-.11.2l0,0c-.17.39-.37.87-.56,1.34s-.46,1.1-.66,1.54a2.73,2.73,0,0,1-.4.58c-.2.23-.31.31-.59.24a1.64,1.64,0,0,1-.76-.37.65.65,0,0,1-.14-.76c.13-.33.26-.59.43-.93l.2-.41c.18-.41.35-.78.6-1.31s.39-.82.54-1.12.34-.7.61-1.28l.12-.27a12.35,12.35,0,0,1,.81-1.63,1.72,1.72,0,0,0,.14-.22l.18-.3,0,0c.28-.34.35-.42.72-.26h0l.17.09a3.7,3.7,0,0,1,.63.31c.23.16.25.34.25.65,0,.84,0,1.62,0,2.15v.54c0,.44,0,.86,0,1.25-.05,1.86.15,1.91.22,1.93s.17-.11.2-.17l.18-.39.61-1.33.47-1.08c.2-.46.34-.8.69-1.63a.82.82,0,0,1,.44-.42.39.39,0,0,1,.3,0l.3.13a4,4,0,0,1,.53.25.29.29,0,0,1,.13.35,1.41,1.41,0,0,1-.13.43l-.39.83c-.15.3-.29.58-.48,1-.1.21-.15.37-.21.53a3.6,3.6,0,0,1-.16.39c0,.1-.24.56-.41.92s-.2.44-.22.5l-.29.67C24.73,61.29,24.58,61.61,24.26,62.34Z"/><path d="M32.07,66.32c-.39-.09-.51-.14-.76-.18s-.46-.23-.41-.58.1-.46.17-.92.12-.68.13-.68c.05-.24.11-.49.17-.73s-.21-.16-.6-.24c-.8-.19-.93-.18-1.64-.35-.41-.15-.34.08-.54.51s-.46,1.33-.6,1.71-.27.46-.48.41l-.62-.14c-.41-.12-.86-.09-.68-.49.08-.22.38-.89.43-1,.31-.73.38-.8.64-1.47.17-.43.46-1,.62-1.39s.31-.83.53-1.3a8.54,8.54,0,0,1,1.07-2,3.42,3.42,0,0,1,1.38-1,1.48,1.48,0,0,1,1-.05,1.42,1.42,0,0,1,1.12.87A3,3,0,0,1,33.37,59c0,.56-.09,1.13-.16,1.69s-.15.89-.21,1.34-.13,1.16-.2,1.74c0,.22,0,.43-.08.65,0,.39-.12.78-.16,1.17C32.46,66.13,32.51,66.35,32.07,66.32Zm-.48-4.81c.09-.56.18-1.11.26-1.67q.06-.44.09-.87a.64.64,0,0,0-.57-.72.91.91,0,0,0-1,.53l-.68,1.33c-.1.21-.2.43-.29.65-.15.41-.25.56-.1.59.4.11,1.31.3,2,.42C31.56,61.82,31.54,61.75,31.59,61.51Z"/><path d="M41.71,64.32a3,3,0,0,1-1.56,2.08.72.72,0,0,1-.2.09,6.53,6.53,0,0,1-2.1.32c-.41,0-.83,0-1.23-.09s-.68-.14-1-.22a.22.22,0,0,1-.2-.22c0-.09,0-.17,0-.25,0-.79-.05-1.49,0-2.27,0-1.29,0-2,.12-4,0-.23,0-.68,0-.92a6,6,0,0,1,.17-1.09.64.64,0,0,1,.57-.55,6.91,6.91,0,0,1,1.64,0c.2,0,.4,0,.6,0a2,2,0,0,1,1,.22,2.6,2.6,0,0,1,1.24,1,2.27,2.27,0,0,1,.34,1.39,1.89,1.89,0,0,1-.73,1.27l-.45.33c.14.11.23.19.34.26a4,4,0,0,1,1.23,1.3A1.71,1.71,0,0,1,41.71,64.32Zm-1.54-.7a.92.92,0,0,0-.19-.53,1.28,1.28,0,0,0-.94-.54l-.76-.07s-.45,0-.45,0a3.53,3.53,0,0,0-.46,0,.28.28,0,0,0-.3.32c0,.71,0,1.42,0,2.13,0,.25,0,.3.3.33s.42,0,.63,0a3.12,3.12,0,0,0,1.14-.1,1.27,1.27,0,0,0,.82-.63A1.67,1.67,0,0,0,40.17,63.62Zm-3.09-3c0,.35.09.43.45.42L38,61a2.37,2.37,0,0,0,1.56-.65.61.61,0,0,0,.22-.56,1.07,1.07,0,0,0-.54-.82,3.1,3.1,0,0,0-1.76-.41c-.27,0-.35.09-.36.37s0,.56,0,.85c0,0,0,.31,0,.31C37.07,60.35,37.09,60.32,37.08,60.59Z"/><path d="M45.73,65.16a4.14,4.14,0,0,1,0,.61.9.9,0,0,1-.25.56.72.72,0,0,1-.74.17.79.79,0,0,1-.61-.58,8.87,8.87,0,0,1-.42-1.86c-.1-.74-.17-1.07-.22-1.37s-.11-1-.16-1.36c-.08-.69,0-.47-.12-1.15-.06-.43-.08-1-.15-1.42a2.62,2.62,0,0,1,.16-1.44A.65.65,0,0,1,44,57a.86.86,0,0,1,.59.58A14.91,14.91,0,0,1,45,59.33c.15,1,.23,1.93.35,2.9Z"/><path d="M59,61.8a4.93,4.93,0,0,1-4,2A4.2,4.2,0,0,1,52,61.71a6.37,6.37,0,0,1-1-4,3.43,3.43,0,0,1,.49-1.8,3.22,3.22,0,0,1,1.1-1,4.59,4.59,0,0,1,3.17-.59.77.77,0,1,1-.24,1.53,2.94,2.94,0,0,0-2.22.45,1.58,1.58,0,0,0-.63.69,3.67,3.67,0,0,0-.14,1.32A4.62,4.62,0,0,0,53.45,61c.5.66,1.1,1.3,1.95,1.19a3.45,3.45,0,0,0,2.35-1.37C58.36,60.05,59.57,61,59,61.8Z"/><path d="M66.41,57.94a3.77,3.77,0,0,1-1,1l-1.84,1.15a11.74,11.74,0,0,1-1.18.58.67.67,0,0,1-.83-.29l-2.25-3.51h0c-.58-.92-1.17-1.83-1.75-2.74L57,53.33A.24.24,0,0,1,57,53a1.85,1.85,0,0,1,.28-.28c.3-.23.28-.28.65-.38s.41-.11.54.07a2.92,2.92,0,0,1,.21.28c.64,1,1.15,1.87,1.79,2.88.46.72.78,1.29,1.24,2l.34.49c.37.65.56.36.84.24a8.1,8.1,0,0,0,.78-.39c.65-.4,1-.61,1.66-1,.27-.16.36-.32.65-.21A.84.84,0,0,1,66.41,57.94Z"/><path d="M73.94,50.9c-.17.76-.67,1.46-1.53,1.17L72,51.91a2,2,0,0,1,0,.35A3.61,3.61,0,0,1,70,55c-1.48.72-3-.53-4-1.49a38.1,38.1,0,0,1-3.16-3.68.75.75,0,0,1,0-1,.74.74,0,0,1,1,0A35.88,35.88,0,0,0,67,52.49a6.3,6.3,0,0,0,1.43,1.09,1.2,1.2,0,0,0,.75.2c.22,0,.22-.05.42-.19a2.76,2.76,0,0,0,.84-.89,1.14,1.14,0,0,0,.1-1,3.26,3.26,0,0,0-.54-.89c-.29-.35-.6-.68-.9-1-1-1-2-2-3-2.87-.7-.63.35-1.62,1-1,1.21,1,2.33,2.21,3.5,3.3a7.28,7.28,0,0,0,1.5,1.09l.42.22v0C72.75,49.6,74.14,50,73.94,50.9Z"/><path d="M77.44,42a3,3,0,0,1,1,2.42,1.55,1.55,0,0,1,0,.21,6.3,6.3,0,0,1-.83,2c-.24.34-.47.68-.73,1s-.47.5-.72.75a.24.24,0,0,1-.3.05l-.21-.11c-.68-.41-1.29-.75-1.95-1.17-1.09-.7-1.71-1.1-3.3-2.19-.19-.13-.56-.39-.76-.51a6.38,6.38,0,0,1-.85-.72.63.63,0,0,1-.16-.77,7.19,7.19,0,0,1,.84-1.41c.11-.16.25-.32.35-.49a2.08,2.08,0,0,1,.73-.77A2.63,2.63,0,0,1,72,39.77a2.24,2.24,0,0,1,1.36.45,1.87,1.87,0,0,1,.69,1.29c0,.16,0,.32,0,.55l.4-.15a4,4,0,0,1,1.75-.37A1.77,1.77,0,0,1,77.44,42Zm-5.6,2c.29.19.42.16.59-.15.08-.13.15-.27.23-.41a2.35,2.35,0,0,0,.27-1.66.61.61,0,0,0-.37-.48,1,1,0,0,0-1,0,3.16,3.16,0,0,0-1.28,1.28c-.13.24-.11.35.13.5l.7.47a2.33,2.33,0,0,1,.26.17C71.63,43.88,71.61,43.85,71.84,44ZM76,43a.88.88,0,0,0-.55-.12,1.33,1.33,0,0,0-1,.51c-.09.12-.25.35-.45.61,0,0-.25.38-.24.39a3.11,3.11,0,0,0-.25.38.28.28,0,0,0,.11.42l1.81,1.14c.21.13.28.11.43-.09s.24-.35.38-.51a3.06,3.06,0,0,0,.51-1,1.25,1.25,0,0,0-.1-1A1.67,1.67,0,0,0,76,43Z"/></g></g></svg>